<svg xmlns="http://www.w3.org/2000/svg" xmlns:xlink="http://www.w3.org/1999/xlink" width="1080" zoomAndPan="magnify" viewBox="0 0 810 1439.999935" height="1920" preserveAspectRatio="xMidYMid meet" version="1.0"><path fill="#dfa24e" d="M 366.367188 663.453125 C 373.304688 663.453125 378.929688 669.078125 378.929688 676.015625 C 378.929688 682.949219 373.304688 688.574219 366.367188 688.574219 C 359.429688 688.574219 353.804688 682.949219 353.804688 676.015625 C 353.804688 669.078125 359.429688 663.453125 366.367188 663.453125 Z M 404.925781 689.171875 L 414.324219 698.035156 L 404.925781 714.085938 L 395.53125 698.035156 Z M 443.484375 663.453125 C 450.421875 663.453125 456.046875 669.078125 456.046875 676.015625 C 456.046875 682.949219 450.421875 688.574219 443.484375 688.574219 C 436.546875 688.574219 430.925781 682.949219 430.925781 676.015625 C 430.925781 669.078125 436.546875 663.453125 443.484375 663.453125 Z M 363.769531 723.675781 C 364.339844 723.816406 364.933594 723.886719 365.546875 723.886719 L 447.257812 723.886719 C 448.527344 723.886719 449.726562 723.578125 450.78125 723.03125 C 468.867188 719.539062 482.875 705.261719 486.441406 687.570312 C 487.019531 684.703125 487.351562 681.753906 487.351562 678.738281 C 487.351562 663.257812 479.515625 649.582031 467.609375 641.441406 C 460.363281 636.492188 451.617188 633.589844 442.203125 633.589844 C 426.808594 633.589844 413.09375 641.289062 404.925781 653.226562 C 396.761719 641.289062 383.042969 633.589844 367.652344 633.589844 C 358.390625 633.589844 349.777344 636.398438 342.601562 641.203125 C 330.496094 649.308594 322.5 663.105469 322.5 678.738281 C 322.5 681.957031 322.871094 685.089844 323.515625 688.125 C 327.574219 707.210938 343.710938 721.960938 363.769531 723.675781 " fill-opacity="1" fill-rule="nonzero"/><path fill="#dfa24e" d="M 310.574219 723.609375 C 310.707031 723.664062 310.84375 723.707031 310.972656 723.761719 C 313.03125 724.632812 315 725.605469 316.929688 726.625 C 319.132812 727.792969 321.253906 729.046875 323.292969 730.402344 C 327.554688 733.230469 331.46875 736.449219 334.960938 740.082031 C 345.691406 751.210938 351.507812 764.796875 351.789062 779.355469 C 352.136719 798.9375 341.757812 817.414062 324.671875 829.566406 C 322.234375 831.300781 319.632812 832.882812 316.929688 834.34375 C 314.875 835.457031 312.769531 836.507812 310.574219 837.445312 Z M 310.574219 693.871094 C 310.574219 667.15625 321.683594 643.054688 339.515625 625.878906 C 326.867188 622.667969 317.5 611.238281 317.5 597.597656 L 346.714844 597.597656 L 346.714844 619.609375 C 362.765625 606.992188 382.996094 599.445312 405 599.445312 C 426.9375 599.445312 447.109375 606.945312 463.140625 619.496094 L 463.140625 597.597656 L 492.351562 597.597656 C 492.351562 611.199219 483.039062 622.597656 470.453125 625.847656 C 488.304688 643.027344 499.425781 667.140625 499.425781 693.871094 L 499.425781 714.621094 C 499.425781 786.191406 440.226562 836.980469 368.8125 841.707031 C 360.375 842.265625 351.371094 842.402344 343.03125 842.402344 C 337.785156 842.402344 332.863281 842.351562 328.441406 842.3125 C 331.484375 840.371094 334.386719 838.28125 337.097656 836.023438 C 339.492188 834.03125 341.71875 831.894531 343.835938 829.683594 C 357.125 815.816406 364.839844 797.9375 364.503906 779.121094 C 364.164062 761.542969 356.925781 744.539062 344.125 731.261719 C 338.125 725.019531 331.128906 719.785156 323.292969 715.59375 C 321.234375 714.492188 319.105469 713.480469 316.929688 712.53125 C 316.597656 712.382812 316.289062 712.199219 315.949219 712.058594 C 314.1875 711.304688 312.382812 710.664062 310.574219 710.027344 Z M 405 882 C 494.46875 882 567 809.46875 567 720 C 567 630.53125 494.46875 558 405 558 C 315.53125 558 243 630.53125 243 720 C 243 809.46875 315.53125 882 405 882 " fill-opacity="1" fill-rule="nonzero"/></svg>