<?xml version="1.0" encoding="UTF-8" standalone="no"?><svg xmlns="http://www.w3.org/2000/svg" xmlns:xlink="http://www.w3.org/1999/xlink" fill="#000000" height="56.9" preserveAspectRatio="xMidYMid meet" version="1" viewBox="14.1 84.3 227.7 56.9" width="227.7" zoomAndPan="magnify"><g><g id="change1_6"><path d="M22.03,141.2c-4.35,0-7.9-3.54-7.9-7.9s3.54-7.9,7.9-7.9s7.9,3.54,7.9,7.9S26.39,141.2,22.03,141.2z M22.03,126.41c-3.8,0-6.9,3.09-6.9,6.9c0,3.8,3.09,6.9,6.9,6.9s6.9-3.09,6.9-6.9C28.93,129.51,25.83,126.41,22.03,126.41z" fill="#916944"/></g><g id="change1_1"><path d="M233.97,141.2c-4.35,0-7.9-3.54-7.9-7.9s3.54-7.9,7.9-7.9s7.9,3.54,7.9,7.9S238.32,141.2,233.97,141.2z M233.97,126.41c-3.8,0-6.9,3.09-6.9,6.9c0,3.8,3.09,6.9,6.9,6.9s6.9-3.09,6.9-6.9C240.86,129.51,237.77,126.41,233.97,126.41z" fill="#916944"/></g><g id="change1_10"><path d="M128.69,100.13c-4.35,0-7.9-3.54-7.9-7.9s3.54-7.9,7.9-7.9s7.9,3.54,7.9,7.9S133.04,100.13,128.69,100.13z" fill="#916944"/></g><g id="change1_2"><path d="M67.86,110.11h-0.5c-4.35,0-7.89-3.54-7.89-7.9c0-4.35,3.54-7.89,7.89-7.89h0.5V110.11z" fill="#916944"/></g><g id="change1_3"><path d="M44.19,124.35l2.04-2.74c0.89-1.2,1.37-2.62,1.37-4.11c0-3.8-3.09-6.9-6.9-6.9c-1.49,0-2.91,0.47-4.11,1.37 l-2.74,2.04l2.04-2.74c1.51-2.03,3.82-3.19,6.33-3.19c4.35,0,7.9,3.54,7.9,7.9c0,2.51-1.16,4.82-3.19,6.33L44.19,124.35z M40.7,109.61c4.35,0,7.9,3.54,7.9,7.9c0,0.47-0.04,0.94-0.12,1.4c0.42-0.9,0.65-1.89,0.65-2.92c0-3.8-3.09-6.9-6.9-6.9 c-1.03,0-2.02,0.22-2.92,0.65C39.76,109.65,40.23,109.61,40.7,109.61z" fill="#916944"/></g><g id="change1_9"><path d="M213.71,122.41c-2.51,0-4.82-1.16-6.33-3.19l-2.04-2.74l2.74,2.04c1.2,0.89,2.62,1.37,4.11,1.37 c3.8,0,6.89-3.09,6.89-6.9c0-1.49-0.47-2.91-1.37-4.11l-2.04-2.74l2.74,2.04c2.03,1.51,3.19,3.82,3.19,6.33 C221.61,118.87,218.06,122.41,213.71,122.41z M210.79,120.76c0.9,0.42,1.89,0.65,2.92,0.65c3.8,0,6.9-3.09,6.9-6.9 c0-1.03-0.23-2.03-0.65-2.93c0.08,0.46,0.12,0.93,0.12,1.4c0,4.35-3.54,7.9-7.89,7.9C211.71,120.88,211.25,120.84,210.79,120.76z" fill="#916944"/></g><g id="change1_7"><path d="M96.02,102.71c-2.08,0-4.06-0.81-5.55-2.31l0,0c-3.08-3.08-3.08-8.09,0-11.17c1.78-1.78,4.23-2.59,6.73-2.22 l3.38,0.49L97.2,88c-1.48,0.22-2.82,0.89-3.87,1.94c-2.69,2.69-2.69,7.06,0,9.75c1.05,1.05,2.39,1.72,3.87,1.94l3.38,0.49 l-3.38,0.49C96.81,102.68,96.41,102.71,96.02,102.71z M91.18,99.69c0.73,0.73,1.59,1.27,2.53,1.61c-0.38-0.27-0.74-0.57-1.08-0.9 c-3.08-3.08-3.08-8.09,0-11.17c0.33-0.34,0.7-0.64,1.08-0.9c-0.93,0.34-1.79,0.88-2.53,1.61C88.49,92.63,88.49,97,91.18,99.69 L91.18,99.69z" fill="#916944"/></g><g id="change1_11"><path d="M160.97,102.71c-0.39,0-0.78-0.03-1.18-0.09l-3.38-0.49l3.38-0.49c1.48-0.22,2.82-0.89,3.87-1.94 c1.3-1.3,2.02-3.03,2.02-4.88s-0.72-3.57-2.02-4.88c-1.05-1.05-2.39-1.72-3.87-1.94l-3.38-0.5l3.38-0.49 c2.5-0.37,4.96,0.44,6.73,2.22c3.08,3.08,3.08,8.09,0,11.17l0,0C165.02,101.9,163.05,102.71,160.97,102.71z M163.29,88.33 c0.38,0.27,0.74,0.57,1.08,0.9c1.49,1.49,2.31,3.47,2.31,5.58s-0.82,4.09-2.31,5.58c-0.33,0.34-0.7,0.64-1.08,0.9 c0.93-0.34,1.8-0.88,2.53-1.61c2.69-2.69,2.69-7.06,0-9.75C165.08,89.21,164.22,88.67,163.29,88.33z" fill="#916944"/></g><g id="change1_8"><path d="M67.36,110.11h-0.5V94.32h0.5c4.36,0,7.9,3.54,7.9,7.89C75.26,106.56,71.72,110.11,67.36,110.11z M67.86,95.33v13.75c3.57-0.26,6.4-3.25,6.4-6.88C74.26,98.57,71.43,95.59,67.86,95.33z" fill="#916944"/></g><g id="change1_5"><path d="M188.87,110.11h-0.5V94.32h0.5c4.35,0,7.89,3.54,7.89,7.89C196.76,106.56,193.22,110.11,188.87,110.11z" fill="#916944"/></g><g id="change1_4"><path d="M189.37,110.11h-0.5c-4.36,0-7.9-3.54-7.9-7.9c0-4.35,3.54-7.89,7.9-7.89h0.5V110.11z M188.37,95.33 c-3.57,0.26-6.4,3.24-6.4,6.87c0,3.64,2.83,6.62,6.4,6.88V95.33z" fill="#916944"/></g></g></svg>